<?xml version="1.0"?>
<svg xmlns:rdf="http://www.w3.org/1999/02/22-rdf-syntax-ns#" xmlns="http://www.w3.org/2000/svg" xmlns:cc="http://creativecommons.org/ns#" xmlns:dc="http://purl.org/dc/elements/1.1/" xmlns:svg="http://www.w3.org/2000/svg" id="svg2846" viewBox="0 0 640 480" version="1.1">
  <g id="layer1">
    <g id="g3789" transform="matrix(1.1036 0 0 1.1036 -130.04 -223.74)">
      <path id="path3592" stroke="#000" stroke-width="8" fill="#d45500" d="m184.29 398.08c-18.58 75.71 15.71 41.43 15.71 97.14 0 55.714-34.286 77.143-7.1429 105.71 27.14 28.58 51.43-24.28 115.71-15.71 64.29 8.57 51.43 31.43 91.43 32.86 40 1.4286 78.571-31.429 101.43-35.714 22.857-4.2857 34.286 24.286 81.429 37.143 47.14 12.85 55.71 5.71 82.85-12.86 27.15-18.57-2.85-38.57-45.71-30s-52.86-55.72-101.43-47.14c-48.57 8.57-62.86 35.71-88.57 27.14-25.714-8.5714-64.286-55.714-134.29-31.429-70 24.286-50-18.571-35.714-40s-42.857-27.143-21.429-67.143c21.429-40-12.053-14.036 7.1428-48.571 28.442-51.17 34.2-79.778 2.8572-128.57-21.797-33.933-54.286-48.571-90 10s-10 100 25.714 147.14z"/>
      <g id="g3767">
        <path id="path3597" fill="#ff7f2a" d="m196.12 218.94c-5.0258 9.4085-14.995 14.133-23.425 19.82-13.798 11.997-18.886 30.723-21.666 48.12-4.5918 34.524 6.3827 69.726 25.809 98.167 8.358 13.789 12.767 29.798 12.906 45.895 1.9912 17.716 8.3433 34.621 16.038 50.547 4.9414 21.027-0.94283 42.5-5.7011 62.975-4.388 13.388-8.3197 27.395-6.804 41.6-0.76212 2.0367 0.95935 4.8728 1.1875 1.2188 1.7121-10.151 1.5094-21.093 7.5312-29.938 6.175-13.357 7.8435-28.113 10.034-42.475 3.615-16.57 7.2861-35.009-1.1837-50.777-7.4484-17.771-5.0404-37.866-12.295-55.726-5.4796-15.96-14.564-30.408-24.787-43.689-8.3209-17.129-3.6743-36.799 1.0328-54.255 5.4687-17.667 17.693-32.315 31.573-44.109 10.754-13.648 5.7808-34.428-6.125-45.719-0.98381-0.56843-3.5143-3.5726-4.125-1.6562z"/>
        <g id="g3679" transform="translate(-5.0508 18.183)">
          <path id="path3646-1" d="m406.73 403.36c-1.9463 3.7184-6.9334 4.1845-10.316 2.3074" transform="matrix(5.7126 0 0 6.8447 -2068.9 -2259.5)" stroke="#000" stroke-width=".54162" fill="none"/>
        </g>
        <g id="g3635" stroke="#000" stroke-width="5" transform="translate(-202.86 -65.714)">
          <path id="path3600" d="m385.42 380.31c-10.435-3.4028-17.162-19.633-15.025-36.251 2.1366-16.618 12.328-27.331 22.762-23.929 10.435 3.4028 17.162 19.633 15.025 36.251-2.1193 16.483-12.171 27.183-22.545 23.998" fill="#fff"/>
          <path id="path3604" transform="translate(7.0711 4.9898)" d="m380.42 367.2c-2.4595-1.5108-4.045-8.717-3.5414-16.095 0.50361-7.3784 2.9057-12.135 5.3652-10.624 2.4595 1.5108 4.045 8.717 3.5414 16.095-0.49952 7.3185-2.8688 12.069-5.3139 10.655"/>
          <g id="g3631" transform="translate(-10)">
            <path id="path3600-5" transform="translate(40.714 -.714)" fill="#fff" d="m385.42 380.31c-10.435-3.4028-17.162-19.633-15.025-36.251 2.1366-16.618 12.328-27.331 22.762-23.929 10.435 3.4028 17.162 19.633 15.025 36.251-2.1193 16.483-12.171 27.183-22.545 23.998"/>
            <path id="path3604-1" transform="translate(47.785 4.2758)" d="m380.42 367.2c-2.4595-1.5108-4.045-8.717-3.5414-16.095 0.50361-7.3784 2.9057-12.135 5.3652-10.624 2.4595 1.5108 4.045 8.717 3.5414 16.095-0.49952 7.3185-2.8688 12.069-5.3139 10.655"/>
          </g>
        </g>
        <path id="path3642" stroke="#000" stroke-width="5" fill="#fff" d="m154.29 310.93c8.5714 31.429 28.498 54.898 45.714 52.857 56.905-6.7468 64.977-69.526 47.143-52.857-44.989 42.049-67.143 10-92.857 0z"/>
        <path id="path3646" d="m406.73 403.36c-1.9463 3.7184-6.9334 4.1845-10.316 2.3074" transform="matrix(5.7126 0 0 6.8447 -2080.6 -2362.1)" stroke="#000" stroke-width=".54162" fill="none"/>
        <path id="path3646-0" d="m406.73 403.36c-1.9463 3.7184-6.9334 4.1845-10.316 2.3074" transform="matrix(4.4751 0 0 6.9528 -1581.4 -2352.8)" stroke="#000" stroke-width=".54162" fill="none"/>
        <path id="path3646-01" d="m406.73 403.36c-1.9463 3.7184-6.9334 4.1845-10.316 2.3074" transform="matrix(4.476 -4.2741 4.1543 6.6111 -3200.3 -400.94)" stroke="#000" stroke-width=".54162" fill="none"/>
        <path id="path3646-01-7" d="m406.73 403.36c-1.9463 3.7184-6.9334 4.1845-10.316 2.3074" transform="matrix(4.4525 -4.769 4.1324 7.3766 -3130.9 -517.54)" stroke="#000" stroke-width=".54162" fill="none"/>
        <path id="path3646-01-8" d="m406.73 403.36c-1.9463 3.7184-6.9334 4.1845-10.316 2.3074" transform="matrix(4.4624 -4.5568 4.1416 7.0484 -3093.2 -456.34)" stroke="#000" stroke-width=".54162" fill="none"/>
        <path id="path3646-01-77" d="m406.73 403.36c-1.9463 3.7184-6.9334 4.1845-10.316 2.3074" transform="matrix(4.4795 -4.2035 4.1575 6.5019 -3066.1 -353.41)" stroke="#000" stroke-width=".54162" fill="none"/>
        <path id="path3646-01-79" d="m406.73 403.36c-1.9463 3.7184-6.9334 4.1845-10.316 2.3074" transform="matrix(4.4658 -4.4861 4.1447 6.939 -3000.9 -431.91)" stroke="#000" stroke-width=".54162" fill="none"/>
        <path id="path3646-01-89" d="m406.73 403.36c-1.9463 3.7184-6.9334 4.1845-10.316 2.3074" transform="matrix(4.536 -3.1466 4.2099 4.8672 -2992.8 -145.34)" stroke="#000" stroke-width=".54162" fill="none"/>
        <path id="path3646-01-5" d="m406.73 403.36c-1.9463 3.7184-6.9334 4.1845-10.316 2.3074" transform="matrix(4.5485 -2.936 4.2215 4.5413 -2960.2 -70.38)" stroke="#000" stroke-width=".54162" fill="none"/>
        <path id="path3646-01-2" d="m406.73 403.36c-1.9463 3.7184-6.9334 4.1845-10.316 2.3074" transform="matrix(4.5162 -3.4983 4.1916 5.4111 -2892.6 -182.24)" stroke="#000" stroke-width=".54162" fill="none"/>
      </g>
    </g>
  </g>
  <metadata>
    <rdf:RDF>
      <cc:Work>
        <dc:format>image/svg+xml</dc:format>
        <dc:type rdf:resource="http://purl.org/dc/dcmitype/StillImage"/>
        <cc:license rdf:resource="http://creativecommons.org/licenses/publicdomain/"/>
        <dc:publisher>
          <cc:Agent rdf:about="http://openclipart.org/">
            <dc:title>Openclipart</dc:title>
          </cc:Agent>
        </dc:publisher>
        <dc:title>Worm</dc:title>
        <dc:date>2010-08-30T13:48:34</dc:date>
        <dc:description>C'est un ver de terre qui sourit</dc:description>
        <dc:source>http://openclipart.org/detail/82867/worm-by-neo1012</dc:source>
        <dc:creator>
          <cc:Agent>
            <dc:title>neo1012</dc:title>
          </cc:Agent>
        </dc:creator>
        <dc:subject>
          <rdf:Bag>
            <rdf:li>asticot</rdf:li>
            <rdf:li>cartoon</rdf:li>
            <rdf:li>clip art</rdf:li>
            <rdf:li>clipart</rdf:li>
            <rdf:li>cute</rdf:li>
            <rdf:li>earthworm</rdf:li>
            <rdf:li>happy</rdf:li>
            <rdf:li>inchworm</rdf:li>
            <rdf:li>smile</rdf:li>
            <rdf:li>ver</rdf:li>
            <rdf:li>worm</rdf:li>
          </rdf:Bag>
        </dc:subject>
      </cc:Work>
      <cc:License rdf:about="http://creativecommons.org/licenses/publicdomain/">
        <cc:permits rdf:resource="http://creativecommons.org/ns#Reproduction"/>
        <cc:permits rdf:resource="http://creativecommons.org/ns#Distribution"/>
        <cc:permits rdf:resource="http://creativecommons.org/ns#DerivativeWorks"/>
      </cc:License>
    </rdf:RDF>
  </metadata>
</svg>
